<svg xmlns="http://www.w3.org/2000/svg" viewBox="0 0 1000 1000"><defs><style>.cls-1,.cls-22,.cls-25,.cls-3,.cls-7,.cls-9{fill:#fff;}.cls-2{fill:#ccc;}.cls-3{stroke:#ccc;}.cls-11,.cls-3,.cls-8{stroke-miterlimit:10;}.cls-4{fill:#83808a;}.cls-10,.cls-5{fill:#e2e0e1;}.cls-11,.cls-12,.cls-14,.cls-22,.cls-23,.cls-24,.cls-25,.cls-5,.cls-6,.cls-7,.cls-8,.cls-9{stroke:#000;}.cls-12,.cls-14,.cls-22,.cls-23,.cls-24,.cls-25,.cls-5,.cls-6,.cls-7,.cls-9{stroke-linecap:round;stroke-linejoin:round;}.cls-5,.cls-7{stroke-width:2px;}.cls-6{fill:#e21924;}.cls-11,.cls-12,.cls-14,.cls-23,.cls-8{fill:none;}.cls-11,.cls-12{stroke-width:3px;}.cls-13,.cls-15{fill:#150c0c;}.cls-15{font-size:24.47px;font-family:VideoCond-Bold, Video Cond;font-weight:700;letter-spacing:-0.03em;}.cls-16{letter-spacing:-0.01em;}.cls-17{letter-spacing:-0.03em;}.cls-18{letter-spacing:-0.02em;}.cls-19{letter-spacing:-0.02em;}.cls-20{letter-spacing:-0.03em;}.cls-21{letter-spacing:-0.02em;}.cls-22,.cls-24{stroke-width:0.5px;}.cls-23,.cls-25{stroke-width:1.5px;}</style></defs><g id="base"><path class="cls-1" d="M481.92,927a1.89,1.89,0,0,1-.92-.27L101.41,707.55a2,2,0,0,1-1-1.49L98,686.67a1,1,0,0,1,0-.24v-20a2,2,0,0,1,1-1.74L483.42,442.75a2.05,2.05,0,0,1,1-.27l33.66,1.4a2,2,0,0,1,.92.26L898.59,663.3a2,2,0,0,1,1,1.49L902,684.17a1.06,1.06,0,0,1,0,.25v20a2,2,0,0,1-1,1.73l-384.42,222a2,2,0,0,1-1,.26Z"/><path class="cls-2" d="M484.42,444.48,518,445.87,897.59,665,900,684.42v20L515.58,926.36,482,925,102.41,705.81c-.94-7.57-1.47-11.81-2.41-19.38v-20L484.42,444.48m0-4a4,4,0,0,0-2,.54L98,663a4,4,0,0,0-2,3.47v20a4,4,0,0,0,0,.49l1,7.93,1.42,11.46a4,4,0,0,0,2,3L480,928.43a4,4,0,0,0,1.84.54l32.3,1.34,1.28.05h.16a4,4,0,0,0,2-.53L902,707.88a4,4,0,0,0,2-3.46v-20a3.91,3.91,0,0,0,0-.49L902.37,671l-.81-6.5a4,4,0,0,0-2-3L520,442.41a4.08,4.08,0,0,0-1.84-.53l-1.57-.07-32-1.32Z"/><polygon class="cls-1" points="481.86 905.47 101.95 686.12 99.46 666.16 484.29 443.98 518.14 445.38 898.05 664.72 900.54 684.69 515.71 906.87 481.86 905.47"/><path class="cls-2" d="M484.42,444.48,518,445.87,897.59,665,900,684.42,515.58,906.36,482,905,102.41,685.81c-.94-7.57-1.47-11.81-2.41-19.38L484.42,444.48m-.25-1-.25.15L99.5,665.56l-.57.33.08.66,1.2,9.69,1.21,9.7.06.49.43.25L481.5,905.84l.22.12H482l33.58,1.39h.29l.25-.14L900.5,685.29l.57-.34-.08-.65-2.41-19.39-.06-.49-.43-.25L518.5,445l-.22-.12H518l-33.58-1.4Z"/></g><g id="art"><ellipse class="cls-3" cx="163.71" cy="674.09" rx="19.86" ry="11.46"/><ellipse class="cls-3" cx="205.84" cy="649.77" rx="19.86" ry="11.46"/><ellipse class="cls-3" cx="247.96" cy="625.45" rx="19.86" ry="11.46"/><ellipse class="cls-3" cx="290.08" cy="601.13" rx="19.86" ry="11.46"/><ellipse class="cls-3" cx="332.2" cy="576.82" rx="19.86" ry="11.46"/><ellipse class="cls-3" cx="374.33" cy="552.5" rx="19.86" ry="11.46"/><ellipse class="cls-3" cx="416.45" cy="528.18" rx="19.86" ry="11.46"/><ellipse class="cls-3" cx="458.57" cy="503.86" rx="19.86" ry="11.46"/><ellipse class="cls-3" cx="500.69" cy="479.54" rx="19.86" ry="11.46"/><ellipse class="cls-3" cx="205.84" cy="698.41" rx="19.86" ry="11.46"/><ellipse class="cls-3" cx="247.96" cy="674.09" rx="19.86" ry="11.46"/><ellipse class="cls-3" cx="290.08" cy="649.77" rx="19.86" ry="11.46"/><ellipse class="cls-3" cx="332.2" cy="625.45" rx="19.86" ry="11.46"/><ellipse class="cls-3" cx="374.33" cy="601.13" rx="19.86" ry="11.46"/><ellipse class="cls-3" cx="416.45" cy="576.82" rx="19.86" ry="11.46"/><ellipse class="cls-3" cx="458.57" cy="552.5" rx="19.86" ry="11.46"/><ellipse class="cls-3" cx="500.69" cy="528.18" rx="19.86" ry="11.46"/><ellipse class="cls-3" cx="542.82" cy="503.86" rx="19.86" ry="11.46"/><ellipse class="cls-3" cx="247.96" cy="722.73" rx="19.86" ry="11.46"/><ellipse class="cls-3" cx="290.08" cy="698.41" rx="19.86" ry="11.46"/><ellipse class="cls-3" cx="332.2" cy="674.09" rx="19.86" ry="11.46"/><ellipse class="cls-3" cx="374.33" cy="649.77" rx="19.86" ry="11.46"/><ellipse class="cls-3" cx="416.45" cy="625.45" rx="19.86" ry="11.46"/><ellipse class="cls-3" cx="458.57" cy="601.13" rx="19.86" ry="11.46"/><ellipse class="cls-3" cx="500.69" cy="576.82" rx="19.86" ry="11.46"/><ellipse class="cls-3" cx="290.08" cy="747.05" rx="19.86" ry="11.46"/><ellipse class="cls-3" cx="332.2" cy="722.73" rx="19.86" ry="11.46"/><ellipse class="cls-3" cx="374.33" cy="698.41" rx="19.86" ry="11.46"/><ellipse class="cls-3" cx="416.45" cy="674.09" rx="19.86" ry="11.46"/><ellipse class="cls-3" cx="458.57" cy="649.77" rx="19.86" ry="11.46"/><ellipse class="cls-3" cx="500.69" cy="625.45" rx="19.86" ry="11.46"/><ellipse class="cls-3" cx="542.82" cy="601.13" rx="19.86" ry="11.46"/><ellipse class="cls-3" cx="542.82" cy="552.5" rx="19.86" ry="11.46"/><ellipse class="cls-3" cx="584.94" cy="528.18" rx="19.86" ry="11.46"/><ellipse class="cls-3" cx="584.94" cy="576.82" rx="19.86" ry="11.46"/><ellipse class="cls-3" cx="627.06" cy="552.5" rx="19.86" ry="11.46"/><ellipse class="cls-3" cx="331" cy="770.68" rx="19.86" ry="11.46"/><ellipse class="cls-3" cx="373.12" cy="746.36" rx="19.86" ry="11.46"/><ellipse class="cls-3" cx="415.24" cy="722.04" rx="19.86" ry="11.46"/><ellipse class="cls-3" cx="457.37" cy="697.72" rx="19.86" ry="11.46"/><ellipse class="cls-3" cx="499.49" cy="673.4" rx="19.86" ry="11.46"/><ellipse class="cls-3" cx="541.61" cy="649.08" rx="19.86" ry="11.46"/><ellipse class="cls-3" cx="583.73" cy="624.76" rx="19.86" ry="11.46"/><ellipse class="cls-3" cx="625.86" cy="600.44" rx="19.86" ry="11.46"/><ellipse class="cls-3" cx="667.98" cy="576.12" rx="19.86" ry="11.46"/><ellipse class="cls-3" cx="373.12" cy="794.99" rx="19.86" ry="11.46"/><ellipse class="cls-3" cx="415.24" cy="770.68" rx="19.86" ry="11.46"/><ellipse class="cls-3" cx="457.37" cy="746.36" rx="19.86" ry="11.46"/><ellipse class="cls-3" cx="499.49" cy="722.04" rx="19.86" ry="11.46"/><ellipse class="cls-3" cx="541.61" cy="697.72" rx="19.86" ry="11.46"/><ellipse class="cls-3" cx="583.73" cy="673.4" rx="19.86" ry="11.46"/><ellipse class="cls-3" cx="625.86" cy="649.08" rx="19.86" ry="11.46"/><ellipse class="cls-3" cx="667.98" cy="624.76" rx="19.86" ry="11.46"/><ellipse class="cls-3" cx="710.1" cy="600.44" rx="19.86" ry="11.46"/><ellipse class="cls-3" cx="415.24" cy="819.31" rx="19.86" ry="11.46"/><ellipse class="cls-3" cx="457.37" cy="794.99" rx="19.86" ry="11.46"/><ellipse class="cls-3" cx="499.49" cy="770.68" rx="19.86" ry="11.46"/><ellipse class="cls-3" cx="541.61" cy="746.36" rx="19.86" ry="11.46"/><ellipse class="cls-3" cx="583.73" cy="722.04" rx="19.86" ry="11.46"/><ellipse class="cls-3" cx="625.86" cy="697.72" rx="19.86" ry="11.46"/><ellipse class="cls-3" cx="667.98" cy="673.4" rx="19.86" ry="11.46"/><ellipse class="cls-3" cx="457.37" cy="843.63" rx="19.86" ry="11.46"/><ellipse class="cls-3" cx="499.49" cy="819.31" rx="19.86" ry="11.46"/><ellipse class="cls-3" cx="541.61" cy="794.99" rx="19.86" ry="11.46"/><ellipse class="cls-3" cx="583.73" cy="770.68" rx="19.86" ry="11.46"/><ellipse class="cls-3" cx="625.86" cy="746.36" rx="19.86" ry="11.46"/><ellipse class="cls-3" cx="667.98" cy="722.04" rx="19.86" ry="11.46"/><ellipse class="cls-3" cx="710.1" cy="697.72" rx="19.86" ry="11.46"/><ellipse class="cls-3" cx="710.1" cy="649.08" rx="19.86" ry="11.46"/><ellipse class="cls-3" cx="752.22" cy="624.76" rx="19.86" ry="11.46"/><ellipse class="cls-3" cx="752.22" cy="673.4" rx="19.86" ry="11.46"/><ellipse class="cls-3" cx="794.35" cy="649.08" rx="19.86" ry="11.46"/><ellipse class="cls-3" cx="499.49" cy="868.65" rx="19.86" ry="11.46"/><ellipse class="cls-3" cx="541.61" cy="844.33" rx="19.86" ry="11.46"/><ellipse class="cls-3" cx="583.73" cy="820.01" rx="19.86" ry="11.46"/><ellipse class="cls-3" cx="625.86" cy="795.69" rx="19.86" ry="11.46"/><ellipse class="cls-3" cx="667.98" cy="771.37" rx="19.86" ry="11.46"/><ellipse class="cls-3" cx="710.1" cy="747.05" rx="19.86" ry="11.46"/><ellipse class="cls-3" cx="752.22" cy="722.73" rx="19.86" ry="11.46"/><ellipse class="cls-3" cx="794.35" cy="698.41" rx="19.86" ry="11.46"/><ellipse class="cls-3" cx="836.47" cy="674.09" rx="19.86" ry="11.46"/><path class="cls-4" d="M500.85,530.66a2.65,2.65,0,0,1-2-.88l-34.21-37.84-7.6-4.38a2,2,0,0,1-1-1.74V339.23a2,2,0,0,1,1-1.73l41.35-23.87a2,2,0,0,1,1-.27,2,2,0,0,1,1,.27l42.89,24.76a2,2,0,0,1,1,1.73V486.7a2,2,0,0,1-1,1.73l-7.7,4.45-32.77,36.88A2.67,2.67,0,0,1,500.85,530.66Z"/><path d="M499.42,315.36l42.89,24.76V486.7l-8,4.61-33,37.13a.68.68,0,0,1-.49.22.64.64,0,0,1-.49-.22l-34.42-38.07-7.87-4.55V339.23l41.35-23.87m0-4a4,4,0,0,0-2,.54l-41.35,23.87a4,4,0,0,0-2,3.46V485.82a4,4,0,0,0,2,3.47l7.32,4.23,34,37.6a4.68,4.68,0,0,0,3.46,1.54,4.64,4.64,0,0,0,3.48-1.57l32.56-36.64,7.42-4.29a4,4,0,0,0,2-3.46V340.12a4,4,0,0,0-2-3.46L501.42,311.9a4,4,0,0,0-2-.54Z"/><polygon class="cls-5" points="542.31 340.12 500.95 363.99 500.95 510.58 542.31 486.7 542.31 340.12"/><polygon class="cls-6" points="542.31 366.62 500.95 390.5 500.95 403.81 542.31 379.93 542.31 366.62"/><polygon class="cls-7" points="458.07 485.82 500.95 510.58 500.95 363.99 458.07 339.23 458.07 485.82"/><line class="cls-8" x1="493.5" y1="471.31" x2="479.94" y2="463.3"/><line class="cls-8" x1="493.5" y1="465.56" x2="479.94" y2="457.55"/><line class="cls-8" x1="493.5" y1="459.8" x2="479.94" y2="451.79"/><line class="cls-8" x1="493.5" y1="454.05" x2="479.94" y2="446.04"/><line class="cls-8" x1="493.5" y1="448.3" x2="479.94" y2="440.29"/><line class="cls-8" x1="493.5" y1="442.54" x2="479.94" y2="434.53"/><line class="cls-8" x1="493.5" y1="436.79" x2="479.94" y2="428.78"/><line class="cls-8" x1="493.5" y1="430.97" x2="479.94" y2="422.96"/><line class="cls-8" x1="493.5" y1="476.99" x2="479.94" y2="468.98"/><polygon class="cls-6" points="458.07 378.47 500.95 403.23 500.95 390.34 458.07 365.58 458.07 378.47"/><polygon class="cls-9" points="499.42 315.36 458.07 339.23 458.07 339.24 500.95 363.99 542.31 340.12 499.42 315.36"/><path class="cls-10" d="M750.92,681.57a2.54,2.54,0,0,1-1.25-.33L571.57,578.41a2.55,2.55,0,0,1-1-1l-13.7-26.17a2.48,2.48,0,0,1-.28-1.16V230.66a2.48,2.48,0,0,1,1-2l13.7-10.36a2.55,2.55,0,0,1,.39-.24L587,210.42a2.59,2.59,0,0,1,1.12-.26,2.54,2.54,0,0,1,1.25.33l178.1,102.83a2.55,2.55,0,0,1,1,1l13.7,26.17a2.61,2.61,0,0,1,.28,1.16V661.07a2.51,2.51,0,0,1-1,2c-2.79,2.11-8.59,5.54-14.74,9.17-5.75,3.39-11.69,6.9-14.25,8.84A2.56,2.56,0,0,1,750.92,681.57Z"/><path d="M588.11,212.66l178.1,102.83,13.7,26.17V661.07c-5.35,4-23.64,14-29,18L572.82,576.25l-13.7-26.18V230.66l13.7-10.35,15.29-7.65m0-5a4.92,4.92,0,0,0-2.24.53l-15.29,7.64a5.35,5.35,0,0,0-.78.49l-4.1,3.1-9.6,7.25a5,5,0,0,0-2,4V550.07a5,5,0,0,0,.57,2.32l6.85,13.09,6.85,13.08a5.07,5.07,0,0,0,1.93,2L748.42,683.4a5,5,0,0,0,5.51-.34c2.45-1.85,8.34-5.32,14-8.68,6.2-3.67,12.06-7.13,15-9.32a5,5,0,0,0,2-4V341.66a4.91,4.91,0,0,0-.57-2.31l-13.7-26.18a5,5,0,0,0-1.93-2L590.61,208.33a5,5,0,0,0-2.5-.67Z"/><polygon class="cls-1" points="573.19 575.88 559.62 549.95 559.62 230.91 572.85 220.9 750.54 323.49 764.12 349.43 764.12 668.47 750.88 678.47 573.19 575.88"/><path d="M572.89,221.5,750.17,323.85l6.71,12.84,6.74,12.87V668.22l-12.77,9.66L573.57,575.52l-6.72-12.83-6.73-12.87V231.16l6.45-4.88,6.32-4.78m-.07-1.19-13.7,10.35V550.07l13.7,26.18,178.1,102.82,13.7-10.35V349.31l-13.7-26.18L572.82,220.31Z"/><path d="M579.82,242.48l162.75,94,6.35,12.14V653.12l-5,3.78-162.75-94-6.35-12.14V246.25l3.64-2.75,1.36-1m-.15-2.4-6.85,5.18v306c2.67,5.11,4.17,8,6.85,13.09l164.4,94.92,6.85-5.18v-306L744.07,335l-164.4-94.92Z"/><path d="M593.37,262.72l91.79,53c1.6,3.07,2.5,4.79,4.11,7.85v39.67l-4.11,3.1-91.79-53-4.11-7.85V265.82l4.11-3.1m-.23-3.6-1.58,1.2-1.42,1.08-2.69,2-1.19.9v41.89l.34.66,3.68,7,.43.82.4.77.76.44,91.79,53,1.72,1,1.59-1.2,4.11-3.11,1.19-.9V322.83l-.34-.66-3.69-7-.42-.82-.41-.77-.75-.44-91.79-53-1.73-1Z"/><path d="M596.18,270.24l85.49,49.36,1,1.89,1.5,2.87v33.08l-1.15.86-.67.51-85.48-49.36-1.45-2.76-1-2V271.61l1-.73.84-.64m-.07-1.2-2.74,2.07v33.83l2.74,5.23L682.42,360l2.74-2.08V324.11l-2.74-5.23L596.11,269Z"/><ellipse class="cls-11" cx="611.18" cy="539.05" rx="17.9" ry="31" transform="translate(-187.64 377.81) rotate(-30)"/><ellipse class="cls-11" cx="661.87" cy="568.31" rx="17.9" ry="31" transform="translate(-195.48 407.08) rotate(-30)"/><ellipse class="cls-11" cx="712.56" cy="597.58" rx="17.9" ry="31" transform="translate(-203.33 436.35) rotate(-30)"/><ellipse class="cls-11" cx="611.18" cy="480.52" rx="17.9" ry="31" transform="translate(-158.38 369.97) rotate(-30)"/><ellipse class="cls-11" cx="661.87" cy="509.78" rx="17.9" ry="31" transform="translate(-166.22 399.24) rotate(-30)"/><ellipse class="cls-11" cx="712.56" cy="539.05" rx="17.9" ry="31" transform="translate(-174.06 428.5) rotate(-30)"/><ellipse class="cls-11" cx="611.18" cy="421.98" rx="17.9" ry="31" transform="translate(-129.11 362.13) rotate(-30)"/><ellipse class="cls-11" cx="661.87" cy="451.25" rx="17.9" ry="31" transform="translate(-136.95 391.39) rotate(-30)"/><ellipse class="cls-11" cx="712.56" cy="480.52" rx="17.9" ry="31" transform="translate(-144.79 420.66) rotate(-30)"/><ellipse class="cls-11" cx="611.18" cy="363.45" rx="17.9" ry="31" transform="translate(-99.84 354.29) rotate(-30)"/><ellipse class="cls-11" cx="661.87" cy="392.72" rx="17.9" ry="31" transform="translate(-107.69 383.55) rotate(-30)"/><ellipse class="cls-11" cx="712.56" cy="421.98" rx="17.9" ry="31" transform="matrix(0.87, -0.5, 0.5, 0.87, -115.53, 412.82)"/><polyline class="cls-12" points="720.75 592.78 708.86 604.9 704.31 595.51"/><polyline class="cls-12" points="655.36 451.45 663.58 448.29 671.8 460.94"/><polyline class="cls-12" points="671.8 511.56 663.58 514.73 655.36 502.07"/><polyline class="cls-12" points="709.82 527.97 716.67 541.42 709.82 546.96"/><polyline class="cls-12" points="614.54 491.88 607.69 478.43 614.54 472.89"/><path class="cls-10" d="M611.14,563.76c-11.81-7-21.38-23.68-21.38-37.37,0-9.34,4.45-15.15,11.63-15.15a19.37,19.37,0,0,1,9.54,2.93l.69.41a16.06,16.06,0,0,0-3.38-.38c-7.68,0-12.63,6.34-12.63,16.15C595.61,541.77,602,555.2,611.14,563.76Z"/><path class="cls-13" d="M601.39,510.74v1a17.74,17.74,0,0,1,7.63,2l-.78,0c-8,0-13.13,6.53-13.13,16.65s4.82,21.52,12.13,30c-9.69-8-17-22.13-17-34,0-9,4.26-14.65,11.13-14.65v-1m0,0c-7.2,0-12.13,5.73-12.13,15.65,0,14,9.81,31,21.92,38A27.48,27.48,0,0,0,614.6,566c-10.48-7.95-18.49-23-18.49-35.68,0-9.92,4.94-15.65,12.13-15.65A17.37,17.37,0,0,1,614.6,516a33.32,33.32,0,0,0-3.42-2.28,19.93,19.93,0,0,0-9.79-3Z"/><path class="cls-10" d="M661.83,593c-11.81-7-21.38-23.68-21.38-37.37,0-9.35,4.45-15.15,11.63-15.15a19.27,19.27,0,0,1,9.54,2.93c.23.13.46.26.69.41a15.43,15.43,0,0,0-3.38-.38c-7.67,0-12.63,6.33-12.63,16.14C646.3,571,652.67,584.46,661.83,593Z"/><path class="cls-13" d="M652.08,540v1a17.74,17.74,0,0,1,7.63,2c-.26,0-.52,0-.78,0-8,0-13.13,6.53-13.13,16.64s4.82,21.52,12.13,30c-9.69-8-17-22.12-17-34,0-9,4.26-14.65,11.13-14.65v-1m0,0c-7.19,0-12.13,5.73-12.13,15.65,0,14,9.81,31,21.92,38a26,26,0,0,0,3.42,1.66c-10.48-7.95-18.49-23-18.49-35.68,0-9.91,4.94-15.64,12.13-15.64a17.37,17.37,0,0,1,6.36,1.32,33.43,33.43,0,0,0-3.42-2.29,19.91,19.91,0,0,0-9.79-3Z"/><path class="cls-10" d="M712.53,622.29c-11.82-7-21.39-23.68-21.39-37.37,0-9.34,4.46-15.14,11.63-15.14a19.29,19.29,0,0,1,9.54,2.92l.69.41a16.06,16.06,0,0,0-3.38-.38c-7.67,0-12.63,6.34-12.63,16.15C697,600.3,703.36,613.73,712.53,622.29Z"/><path class="cls-13" d="M702.77,569.28v1a17.72,17.72,0,0,1,7.63,2l-.78,0c-8,0-13.13,6.54-13.13,16.65s4.82,21.52,12.13,30c-9.69-8-17-22.12-17-34,0-9,4.26-14.64,11.13-14.64v-1m0,0c-7.19,0-12.13,5.73-12.13,15.64,0,14,9.81,31,21.92,38a26.15,26.15,0,0,0,3.42,1.67c-10.47-7.95-18.49-23-18.49-35.68,0-9.92,4.94-15.65,12.13-15.65a17.19,17.19,0,0,1,6.36,1.33,31.86,31.86,0,0,0-3.42-2.29,19.88,19.88,0,0,0-9.79-3Z"/><path class="cls-10" d="M611.14,505.23c-11.81-7-21.38-23.68-21.38-37.37,0-9.34,4.45-15.15,11.63-15.15a19.27,19.27,0,0,1,9.54,2.93l.69.41a15.43,15.43,0,0,0-3.38-.38c-7.68,0-12.63,6.34-12.63,16.14C595.61,483.23,602,496.67,611.14,505.23Z"/><path class="cls-13" d="M601.39,452.21v1a17.74,17.74,0,0,1,7.63,2c-.26,0-.52,0-.78,0-8,0-13.13,6.53-13.13,16.64s4.82,21.53,12.13,30.05c-9.69-8-17-22.12-17-34,0-9,4.26-14.65,11.13-14.65v-1m0,0c-7.2,0-12.13,5.73-12.13,15.65,0,14,9.81,31,21.92,38a26,26,0,0,0,3.42,1.66c-10.48-7.94-18.49-23-18.49-35.68,0-9.91,4.94-15.64,12.13-15.64a17.37,17.37,0,0,1,6.36,1.32,33.43,33.43,0,0,0-3.42-2.29,19.91,19.91,0,0,0-9.79-3Z"/><path class="cls-10" d="M661.83,534.49c-11.81-7-21.38-23.68-21.38-37.36,0-9.35,4.45-15.15,11.63-15.15a19.35,19.35,0,0,1,9.54,2.92l.69.41a16.06,16.06,0,0,0-3.38-.38c-7.67,0-12.63,6.34-12.63,16.15C646.3,512.5,652.67,525.93,661.83,534.49Z"/><path class="cls-13" d="M652.08,481.48v1a17.86,17.86,0,0,1,7.63,2l-.78,0c-8,0-13.13,6.54-13.13,16.65s4.82,21.52,12.13,30.05c-9.69-8-17-22.12-17-34,0-9,4.26-14.65,11.13-14.65v-1m0,0c-7.19,0-12.13,5.73-12.13,15.65,0,14,9.81,31,21.92,38a24.94,24.94,0,0,0,3.42,1.67c-10.48-8-18.49-23-18.49-35.68,0-9.91,4.94-15.65,12.13-15.65a17.19,17.19,0,0,1,6.36,1.33,31.86,31.86,0,0,0-3.42-2.29,19.91,19.91,0,0,0-9.79-3Z"/><path class="cls-10" d="M712.53,563.76c-11.82-7-21.39-23.68-21.39-37.37,0-9.34,4.46-15.15,11.63-15.15a19.31,19.31,0,0,1,9.54,2.93l.69.41a16.06,16.06,0,0,0-3.38-.38c-7.67,0-12.63,6.34-12.63,16.15C697,541.77,703.36,555.2,712.53,563.76Z"/><path class="cls-13" d="M702.77,510.74v1a17.74,17.74,0,0,1,7.63,2l-.78,0c-8,0-13.13,6.53-13.13,16.65s4.82,21.52,12.13,30c-9.69-8-17-22.13-17-34,0-9,4.26-14.65,11.13-14.65v-1m0,0c-7.19,0-12.13,5.74-12.13,15.65,0,14,9.81,31,21.92,38A27.48,27.48,0,0,0,716,566c-10.47-7.95-18.49-23-18.49-35.68,0-9.92,4.94-15.65,12.13-15.65A17.37,17.37,0,0,1,716,516a33.32,33.32,0,0,0-3.42-2.28,19.9,19.9,0,0,0-9.79-3Z"/><path class="cls-10" d="M611.14,446.7c-11.81-7-21.38-23.68-21.38-37.37,0-9.35,4.45-15.15,11.63-15.15a19.35,19.35,0,0,1,9.54,2.92l.69.42a15.43,15.43,0,0,0-3.38-.38c-7.68,0-12.63,6.33-12.63,16.14C595.61,424.7,602,438.13,611.14,446.7Z"/><path class="cls-13" d="M601.39,393.68v1a17.74,17.74,0,0,1,7.63,2c-.26,0-.52,0-.78,0-8,0-13.13,6.53-13.13,16.64s4.82,21.52,12.13,30.05c-9.69-8-17-22.12-17-34,0-9,4.26-14.65,11.13-14.65v-1m0,0c-7.2,0-12.13,5.73-12.13,15.65,0,14,9.81,31,21.92,38A24.94,24.94,0,0,0,614.6,449c-10.48-7.95-18.49-23-18.49-35.68,0-9.91,4.94-15.64,12.13-15.64A17.37,17.37,0,0,1,614.6,399a31.86,31.86,0,0,0-3.42-2.29,19.91,19.91,0,0,0-9.79-3Z"/><path class="cls-10" d="M661.83,476c-11.81-7-21.38-23.68-21.38-37.37,0-9.34,4.45-15.15,11.63-15.15a19.37,19.37,0,0,1,9.54,2.93l.69.41a16.06,16.06,0,0,0-3.38-.38c-7.67,0-12.63,6.34-12.63,16.15C646.3,454,652.67,467.4,661.83,476Z"/><path class="cls-13" d="M652.08,422.94v1a17.74,17.74,0,0,1,7.63,2l-.78,0c-8,0-13.13,6.54-13.13,16.65s4.82,21.52,12.13,30.05c-9.69-8-17-22.12-17-34,0-9,4.26-14.65,11.13-14.65v-1m0,0c-7.19,0-12.13,5.74-12.13,15.65,0,14,9.81,31,21.92,38a26.15,26.15,0,0,0,3.42,1.67c-10.48-8-18.49-23.05-18.49-35.68,0-9.92,4.94-15.65,12.13-15.65a17.19,17.19,0,0,1,6.36,1.33,31.86,31.86,0,0,0-3.42-2.29,19.93,19.93,0,0,0-9.79-3Z"/><path class="cls-10" d="M712.53,505.23c-11.82-7-21.39-23.68-21.39-37.37,0-9.34,4.46-15.15,11.63-15.15a19.31,19.31,0,0,1,9.54,2.93l.69.41a15.43,15.43,0,0,0-3.38-.38C702,455.67,697,462,697,471.81,697,483.23,703.36,496.67,712.53,505.23Z"/><path class="cls-13" d="M702.77,452.21v1a17.74,17.74,0,0,1,7.63,2c-.26,0-.52,0-.78,0-8,0-13.13,6.53-13.13,16.64s4.82,21.53,12.13,30.05c-9.69-8-17-22.12-17-34,0-9,4.26-14.65,11.13-14.65v-1m0,0c-7.19,0-12.13,5.73-12.13,15.65,0,14,9.81,31,21.92,38a26,26,0,0,0,3.42,1.66c-10.47-7.94-18.49-23-18.49-35.68,0-9.91,4.94-15.64,12.13-15.64a17.37,17.37,0,0,1,6.36,1.32,33.43,33.43,0,0,0-3.42-2.29,19.88,19.88,0,0,0-9.79-3Z"/><path class="cls-10" d="M611.15,388.16c-11.82-7-21.39-23.68-21.39-37.37,0-9.34,4.45-15.14,11.63-15.14a19.35,19.35,0,0,1,9.54,2.92l.69.41a16.06,16.06,0,0,0-3.38-.38c-7.68,0-12.63,6.34-12.63,16.15C595.61,366.17,602,379.6,611.15,388.16Z"/><path class="cls-13" d="M601.39,335.15v1a17.86,17.86,0,0,1,7.63,2l-.78,0c-8,0-13.13,6.54-13.13,16.65s4.82,21.52,12.13,30.05c-9.69-8-17-22.12-17-34,0-9,4.26-14.65,11.13-14.65v-1m0,0c-7.2,0-12.13,5.73-12.13,15.65,0,14,9.81,31,21.92,38a26.15,26.15,0,0,0,3.42,1.67c-10.48-7.95-18.49-23.05-18.49-35.68,0-9.92,4.94-15.65,12.13-15.65a17.19,17.19,0,0,1,6.36,1.33,31.86,31.86,0,0,0-3.42-2.29,19.91,19.91,0,0,0-9.79-3Z"/><path class="cls-10" d="M661.83,417.43c-11.81-7-21.38-23.68-21.38-37.37,0-9.34,4.45-15.15,11.63-15.15a19.37,19.37,0,0,1,9.54,2.93l.69.41a16.06,16.06,0,0,0-3.38-.38c-7.67,0-12.63,6.34-12.63,16.15C646.3,395.44,652.67,408.87,661.83,417.43Z"/><path class="cls-13" d="M652.08,364.41v1a17.74,17.74,0,0,1,7.63,2l-.78,0c-8,0-13.13,6.53-13.13,16.65s4.82,21.52,12.13,30.05c-9.69-8-17-22.13-17-34,0-9,4.26-14.65,11.13-14.65v-1m0,0c-7.19,0-12.13,5.73-12.13,15.65,0,14,9.81,31,21.92,38a27.48,27.48,0,0,0,3.42,1.67c-10.48-7.95-18.49-23.05-18.49-35.68,0-9.92,4.94-15.65,12.13-15.65a17.37,17.37,0,0,1,6.36,1.32,33.32,33.32,0,0,0-3.42-2.28,19.83,19.83,0,0,0-9.79-3Z"/><path class="cls-10" d="M712.53,446.7c-11.82-7-21.39-23.68-21.39-37.37,0-9.35,4.46-15.15,11.63-15.15a19.21,19.21,0,0,1,9.54,2.93c.23.13.46.26.69.41a15.43,15.43,0,0,0-3.38-.38c-7.67,0-12.63,6.33-12.63,16.14C697,424.7,703.36,438.13,712.53,446.7Z"/><path class="cls-13" d="M702.77,393.68v1a17.74,17.74,0,0,1,7.63,2c-.26,0-.52,0-.78,0-8,0-13.13,6.53-13.13,16.64s4.82,21.52,12.13,30.05c-9.69-8-17-22.12-17-34,0-9,4.26-14.65,11.13-14.65v-1m0,0c-7.19,0-12.13,5.73-12.13,15.65,0,14,9.81,31,21.92,38A24.94,24.94,0,0,0,716,449c-10.47-7.95-18.49-23-18.49-35.68,0-9.91,4.94-15.64,12.13-15.64A17.37,17.37,0,0,1,716,399a31.86,31.86,0,0,0-3.42-2.29,19.88,19.88,0,0,0-9.79-3Z"/><line class="cls-14" x1="764.38" y1="630.04" x2="782.41" y2="619.39"/><line class="cls-14" x1="764.38" y1="622.39" x2="782.41" y2="611.74"/><line class="cls-14" x1="764.38" y1="614.74" x2="782.41" y2="604.1"/><line class="cls-14" x1="764.38" y1="607.1" x2="782.41" y2="596.45"/><line class="cls-14" x1="764.38" y1="599.45" x2="782.41" y2="588.8"/><line class="cls-14" x1="764.38" y1="591.81" x2="782.41" y2="581.16"/><line class="cls-14" x1="764.38" y1="584.16" x2="782.41" y2="573.51"/><line class="cls-14" x1="764.38" y1="576.42" x2="782.41" y2="565.77"/><line class="cls-14" x1="764.38" y1="637.59" x2="782.41" y2="626.94"/><line class="cls-14" x1="764.29" y1="443.35" x2="782.33" y2="432.7"/><line class="cls-14" x1="764.29" y1="435.7" x2="782.33" y2="425.05"/><line class="cls-14" x1="764.29" y1="428.06" x2="782.33" y2="417.41"/><line class="cls-14" x1="764.29" y1="420.41" x2="782.33" y2="409.76"/><line class="cls-14" x1="764.29" y1="412.76" x2="782.33" y2="402.12"/><line class="cls-14" x1="764.29" y1="405.12" x2="782.33" y2="394.47"/><line class="cls-14" x1="764.29" y1="397.47" x2="782.33" y2="386.82"/><line class="cls-14" x1="764.29" y1="389.73" x2="782.33" y2="379.08"/><line class="cls-14" x1="764.29" y1="450.9" x2="782.33" y2="440.25"/><line class="cls-12" x1="618.49" y1="534.82" x2="603.86" y2="543.27"/><line class="cls-12" x1="603.86" y1="526.38" x2="618.49" y2="551.72"/><text class="cls-15" transform="matrix(0.87, 0.5, 0, 1, 596.66, 299.38)">H<tspan class="cls-16" x="12.07" y="0">O</tspan><tspan class="cls-17" x="24.31" y="0">D</tspan><tspan class="cls-18" x="36.87" y="0">L </tspan><tspan class="cls-19" x="52.5" y="0">S</tspan><tspan class="cls-20" x="63.64" y="0">A</tspan><tspan class="cls-21" x="75.48" y="0">F</tspan><tspan class="cls-18" x="85.8" y="0">E</tspan></text><path class="cls-1" d="M491.9,843.59a2.5,2.5,0,0,1-1.25-.34L198.88,674.8a2.51,2.51,0,0,1-1.25-2.16v-8.36a3,3,0,0,1,0-.31l1.61-13a2.51,2.51,0,0,1,1.24-1.86l9-5.22c.29-2.87,1-9.73,1.28-11.87a2.48,2.48,0,0,1,1.23-1.86L386.67,529.38a2.55,2.55,0,0,1,1.14-.33l12-.49a2.5,2.5,0,0,1,1.35.39L527,609.45l33.09,19.11,126.57,65.71a2.49,2.49,0,0,1,1.34,2.37l-.35,5.56,13.92,8a2.5,2.5,0,0,1,1.25,2.36l-1.61,21.32a2.51,2.51,0,0,1-1.25,2L515.6,842.32a2.56,2.56,0,0,1-1.14.34Z"/><path d="M399.79,531.06l125.89,80.53,33.19,19.16,126.62,65.74-.46,7.1,15.27,8.82-1.61,21.32L514.35,840.16l-22.45.93L200.13,672.64v-8.36c.63-5.06,1-7.9,1.62-13l10.14-5.86S213,635,213.3,632.37L387.92,531.55l11.87-.49m0-5h-.21l-6.56.27-5.31.22a5.11,5.11,0,0,0-2.29.67L210.8,628a5,5,0,0,0-2.46,3.71c-.24,1.89-.82,7.37-1.16,10.65L199.25,647a5,5,0,0,0-2.47,3.71l-.76,6.1-.85,6.86c0,.21,0,.41,0,.62v8.36a5,5,0,0,0,2.5,4.33L489.4,845.42a5,5,0,0,0,2.5.67h.21l12.58-.52,9.87-.41a5,5,0,0,0,2.29-.66L701.19,738.06a5,5,0,0,0,2.49-3.95l1.61-21.32a5,5,0,0,0-2.49-4.71l-12.58-7.27.26-4a5,5,0,0,0-2.69-4.75L561.28,626.37l-33-19.06L402.49,526.85a5,5,0,0,0-2.7-.79Z"/><path class="cls-1" d="M491.9,841.59a.55.55,0,0,1-.25-.07L199.88,673.07a.52.52,0,0,1-.25-.43v-8.36l1.62-13a.51.51,0,0,1,.25-.37L385.83,544.45a.46.46,0,0,1,.23-.06l22.48-.93a.54.54,0,0,1,.25.06L700.55,712a.47.47,0,0,1,.25.47l-1.61,21.32a.47.47,0,0,1-.25.39L514.6,840.59a.62.62,0,0,1-.23.07Z"/><path d="M408.54,544,700.3,712.41l-1.61,21.32L514.35,840.16l-22.45.93L200.13,672.64v-8.36c.63-5.06,1-7.9,1.62-13L386.08,544.89l22.46-.93m0-1h0l-9.3.38-13.16.55a.94.94,0,0,0-.46.13L201.25,650.45a1,1,0,0,0-.5.74l-.56,4.5-1.05,8.47s0,.08,0,.12v8.36a1,1,0,0,0,.5.86L491.4,842a1,1,0,0,0,.5.14h0l11.27-.47,11.18-.46a1,1,0,0,0,.46-.14L699.19,734.59a1,1,0,0,0,.5-.79l1.61-21.32a1,1,0,0,0-.5-.94L409,543.09a1,1,0,0,0-.5-.13Z"/><path class="cls-9" d="M491.9,832.73,200.13,664.28l1.62-13L386.08,544.89l22.46-.93L700.3,712.41l-1.61,13L514.35,831.8Z"/><path class="cls-9" d="M212.45,639.22l175.47-91.76,11.87-.49L686.32,696.49l-.85,22.76L510.85,820.07l-11.87.49L212.45,655.13Z"/><path class="cls-22" d="M685.47,714.83,510.85,815.65l-11.87.49L354.83,735.57,212.45,650.71"/><path class="cls-22" d="M685.47,711.29,510.85,812.11,499,812.6,354.83,733.8,212.45,647.18"/><path class="cls-22" d="M685.47,707.76,510.85,808.58l-11.87.49L354.83,732,212.45,643.64"/><path class="cls-9" d="M213.3,632.37,387.92,531.55l11.87-.49,142.38,91.08,144.15,74.35-.85,6.85L510.85,804.16l-11.87.49L354.83,730.26l-142.38-91Z"/><polyline class="cls-14" points="542.17 622.14 354.83 730.3 354.83 737.33 340.23 745.16"/><path class="cls-23" d="M559,705.76,554.27,703l-8.55-5a3.23,3.23,0,0,0-2.36-.25l-11.48,3.7c-.71.21-.84.77-.26,1.11l11.64,6.8,2,1.19"/><path class="cls-23" d="M588.37,723,593,725.7l8.56,5c.63.37.8.92.41,1.37l-6.45,6.64a1.68,1.68,0,0,1-1.89.15L582,732.06l-2-1.2"/><path class="cls-23" d="M585.91,719.56c.49-.56.27-1.26-.53-1.73l-6.76-4-10.82-6.32a4.06,4.06,0,0,0-3-.32l-14.52,4.69c-.9.26-1.07,1-.33,1.39l14.72,8.61,10.66,6.23a2.16,2.16,0,0,0,2.4-.18Z"/><path class="cls-23" d="M593.52,713.89l5.35-5.51c.33-.39.19-.88-.37-1.21l-4.73-2.76L586.22,700a2.8,2.8,0,0,0-2.08-.22l-9.52,3.07"/><path class="cls-23" d="M550,700.55l12.23-3.87a3,3,0,0,1,2.22.24l8.07,4.72,5.05,3c.6.35.75.87.39,1.29l-4.75,4.85"/><path class="cls-23" d="M597.17,728.11l6.74-7.08c.36-.42.21-.94-.39-1.29L595.45,715l-5.05-2.95a3.07,3.07,0,0,0-2.22-.24l-8.35,2.75"/><path class="cls-24" d="M582.19,667.3c.63-.26,2.72-1.31,2.67-3.47s-3.3-3.79-4.38-4.27a3,3,0,0,0,1.19-3.78c-.85-2-4.39-3.18-5.76-3.56,2.37-1.85-.34-3.38-1.85-4.23l-.83-.48c-1.43-.88-4.05-2.46-7.22-1.12A9.79,9.79,0,0,0,559.9,643a11.28,11.28,0,0,0-6.54.68,12.94,12.94,0,0,0-7.26-2.52c-3.63,0-5.44,1.11-6,1.5-1.23,0-7-.18-9.63,1.92-1.94,1.57.62,9.43,2.87,14.48a11.77,11.77,0,0,0-3,.87.85.85,0,0,0-.42,1c.09.47.6,1.5,3.14,3a31.74,31.74,0,0,0,4.25,2,4.05,4.05,0,0,0,1,.82h0a1.87,1.87,0,0,0,.71.84l.21.09.15.12a5.94,5.94,0,0,0,1.56.46,7.24,7.24,0,0,0,1.23.49,23.73,23.73,0,0,0,3.5,2.51,12.37,12.37,0,0,0,5.09,1.85,3.06,3.06,0,0,0,1.66-.25,4.54,4.54,0,0,0,1.53-1.77c8.69,1.35,22.2,2.88,24.92,1.76A5.25,5.25,0,0,0,582.19,667.3Zm-51.43-6.45a.52.52,0,0,1,.2-.57,10.19,10.19,0,0,1,2.64-.73,33.38,33.38,0,0,0,3,5.46C531.53,662.79,530.85,661.29,530.76,660.85Zm3.53-1.66c-2.67-5.93-4.61-13.08-3.09-14.31,2.19-1.76,7.18-1.76,8.68-1.72-.41,2.17-3.12,16.71-2,22.29A29.78,29.78,0,0,1,534.29,659.19ZM540.76,643c.27-.24,1.84-1.41,5.36-1.37a12,12,0,0,1,6.79,2.49c-1,1.3-4.85,6.61-8.29,11.83-3.94,6-5.32,8.83-5.69,10.23C537.25,661.41,540.55,644.16,540.76,643Zm4.67,13.11c3.55-5.39,7.59-10.89,8.36-11.92l.11-.15a9.92,9.92,0,0,1,5.83-.6,8.92,8.92,0,0,1,5.61,3.23l-.17.1c-1.86,1.07-8.67,6-14.55,10.47s-9.4,7.45-10.85,9.05C540.08,665.09,541.34,662.33,545.43,656.14Zm-5.45,11c.61-.92,3.81-3.84,11.37-9.62,5.86-4.48,12.61-9.34,14.44-10.39.1-.06.23-.11.34-.18,2.37-1.21,4.25-.46,6.07.6l.4.23.86.51c2,1.15,3.69,2.3,1.42,3.78a1.57,1.57,0,0,1-.3.2c-1.82,1.05-10.23,4.94-18,8.32C546.61,665,541.57,666.82,540,667.17Zm17.14-6.1c7.8-3.39,16.26-7.31,18.12-8.38l.14-.1c1,.28,4.66,1.39,5.47,3.27a2.67,2.67,0,0,1-1.06,3.39l-.18,0c-1.75.44-11.1,2.71-20.43,4.76-10.78,2.37-15.6,3.1-17.75,3.28C544.18,666.51,549.43,664.42,557.12,661.07Zm-15.5,6.75c2.4-.2,7.35-1,17.89-3.3,9-2,17.89-4.14,20.19-4.7.19.08,4.26,1.79,4.3,4,0,2-1.83,2.87-2.33,3.08l-.17,0C578.94,667.07,549.66,668.82,541.62,667.82Zm10.18,4.66a2,2,0,0,1-1,.12c-.72-.06-3.32-.47-7.15-3.45,2.22.54,5.52,1.17,9.42,1.79A4,4,0,0,1,551.8,672.48Zm26.52-.05c-2.12.88-14.42-.3-24.6-1.89-4.61-.73-8.39-1.46-10.56-2.06,9.65.65,34.27-.8,38.18-1A4.86,4.86,0,0,1,578.32,672.43Z"/><path class="cls-14" d="M585.91,674.59s27.84,11.56,11.46,26.1"/><path class="cls-14" d="M527.71,697.43s-21.36-6.74-41.93,6.14"/><path d="M503.74,757.34a3,3,0,0,1-1.44-1.48,1.76,1.76,0,0,1,.29-1.65,6.05,6.05,0,0,1,2-1.69,9.89,9.89,0,0,1,2.91-1.16,8,8,0,0,1,2.83-.15,6.66,6.66,0,0,1,2.52.85,3.12,3.12,0,0,1,1.45,1.47,1.74,1.74,0,0,1-.27,1.65,6.12,6.12,0,0,1-2,1.68,10.44,10.44,0,0,1-2.93,1.17,8.17,8.17,0,0,1-2.85.16A6.42,6.42,0,0,1,503.74,757.34Zm1.55-.89a3.12,3.12,0,0,0,2,.3,7.6,7.6,0,0,0,2.75-1,4,4,0,0,0,1.79-1.58.88.88,0,0,0-.5-1.17,3.1,3.1,0,0,0-2-.3,7.85,7.85,0,0,0-2.73,1,4.17,4.17,0,0,0-1.82,1.6A.88.88,0,0,0,505.29,756.45Z"/><path d="M521.67,757.34l-8.83,5.1-1.94-1.14,6.55-3.78-.09,0a2.54,2.54,0,0,1-.65,0,5.13,5.13,0,0,1-.88-.22,5.21,5.21,0,0,1-1-.46l1.49-.86a3.8,3.8,0,0,0,.95.39,6.05,6.05,0,0,0,1,.15,5,5,0,0,0,.89,0,2.16,2.16,0,0,0,.61-.17Z"/><path d="M518.44,765.94a3.07,3.07,0,0,1-1.44-1.49,1.73,1.73,0,0,1,.29-1.65,6.05,6.05,0,0,1,2-1.69,10.17,10.17,0,0,1,2.91-1.16,8,8,0,0,1,2.83-.15,6.63,6.63,0,0,1,2.51.86,3.15,3.15,0,0,1,1.46,1.47,1.72,1.72,0,0,1-.27,1.64,5.84,5.84,0,0,1-2,1.68,10.21,10.21,0,0,1-2.93,1.17,7.91,7.91,0,0,1-2.85.16A6.53,6.53,0,0,1,518.44,765.94ZM520,765a3.09,3.09,0,0,0,2,.3,7.57,7.57,0,0,0,2.76-1.05,4.09,4.09,0,0,0,1.79-1.58q.29-.71-.51-1.17a3.06,3.06,0,0,0-2-.3,7.56,7.56,0,0,0-2.73,1,4.1,4.1,0,0,0-1.82,1.59C519.29,764.34,519.46,764.73,520,765Z"/><path d="M536.37,765.93l-8.83,5.1-1.94-1.14,6.54-3.77-.08,0a3.19,3.19,0,0,1-.65,0,4.42,4.42,0,0,1-.89-.22,5.43,5.43,0,0,1-1-.46l1.48-.86a3.34,3.34,0,0,0,1,.39,5.9,5.9,0,0,0,1,.15,5,5,0,0,0,.89,0,2.08,2.08,0,0,0,.6-.17Z"/><path d="M498.4,760.66l-8.83,5.1-1.94-1.13,6.55-3.78-.09-.05a2.54,2.54,0,0,1-.65,0,5.74,5.74,0,0,1-1.88-.69l1.49-.85a3.44,3.44,0,0,0,.95.38,5.15,5.15,0,0,0,1,.15,4.19,4.19,0,0,0,.89,0,2.16,2.16,0,0,0,.61-.17Z"/><path d="M495.17,769.26a3.06,3.06,0,0,1-1.44-1.48,1.75,1.75,0,0,1,.29-1.66,6.17,6.17,0,0,1,2-1.69,10.54,10.54,0,0,1,2.9-1.16,8,8,0,0,1,2.83-.14,6.6,6.6,0,0,1,2.52.85,3.15,3.15,0,0,1,1.46,1.47,1.78,1.78,0,0,1-.27,1.64,5.84,5.84,0,0,1-2,1.68,10.66,10.66,0,0,1-2.93,1.18,8.39,8.39,0,0,1-2.85.16A6.65,6.65,0,0,1,495.17,769.26Zm1.55-.89a3.16,3.16,0,0,0,2,.29,7.64,7.64,0,0,0,2.76-1,3.93,3.93,0,0,0,1.78-1.58c.19-.47,0-.86-.5-1.17a3.19,3.19,0,0,0-2-.3,7.56,7.56,0,0,0-2.73,1,4.11,4.11,0,0,0-1.82,1.6C496,767.67,496.19,768.06,496.72,768.37Z"/><path d="M513.1,769.26l-8.83,5.09-1.94-1.13,6.54-3.78-.08-.05a2.53,2.53,0,0,1-.65,0,5.22,5.22,0,0,1-.89-.22,5.51,5.51,0,0,1-1-.47l1.48-.85a3.63,3.63,0,0,0,1,.38,4.4,4.4,0,0,0,1,.15,4.19,4.19,0,0,0,.89,0,1.81,1.81,0,0,0,.6-.17Z"/><path d="M509.87,777.85a3.09,3.09,0,0,1-1.45-1.48,1.81,1.81,0,0,1,.29-1.66,6.17,6.17,0,0,1,2-1.69,10.59,10.59,0,0,1,2.91-1.16,8.26,8.26,0,0,1,2.83-.14,6.66,6.66,0,0,1,2.52.85,3.12,3.12,0,0,1,1.45,1.47,1.75,1.75,0,0,1-.27,1.65,5.92,5.92,0,0,1-2,1.68,10.75,10.75,0,0,1-2.93,1.17,8.17,8.17,0,0,1-2.85.16A6.49,6.49,0,0,1,509.87,777.85Zm1.54-.89a3.12,3.12,0,0,0,2,.29,7.75,7.75,0,0,0,2.75-1,4,4,0,0,0,1.79-1.58.89.89,0,0,0-.5-1.18,3.13,3.13,0,0,0-2-.29,7.44,7.44,0,0,0-2.74,1,4.23,4.23,0,0,0-1.82,1.6A.89.89,0,0,0,511.41,777Z"/><path d="M474.6,774.17a3.1,3.1,0,0,1-1.44-1.48,1.8,1.8,0,0,1,.29-1.66,6.17,6.17,0,0,1,2-1.69,10.17,10.17,0,0,1,2.91-1.16,8,8,0,0,1,2.83-.15,6.68,6.68,0,0,1,2.52.86,3.12,3.12,0,0,1,1.45,1.47,1.72,1.72,0,0,1-.27,1.64,5.79,5.79,0,0,1-2,1.68,10.78,10.78,0,0,1-2.93,1.18,8.41,8.41,0,0,1-2.85.16A6.76,6.76,0,0,1,474.6,774.17Zm1.55-.9a3.12,3.12,0,0,0,2,.3,7.6,7.6,0,0,0,2.75-1.05,4,4,0,0,0,1.79-1.58c.19-.47,0-.86-.5-1.17a3.15,3.15,0,0,0-2-.3,7.67,7.67,0,0,0-2.74,1,4.17,4.17,0,0,0-1.82,1.6A.87.87,0,0,0,476.15,773.27Z"/><path d="M492.53,774.16l-8.83,5.1-1.94-1.13,6.55-3.78-.09-.05a2.45,2.45,0,0,1-.64,0,5.09,5.09,0,0,1-.89-.23,5.21,5.21,0,0,1-1-.46l1.49-.86a3.17,3.17,0,0,0,.95.39,6.05,6.05,0,0,0,1,.15,5,5,0,0,0,.89,0,2.07,2.07,0,0,0,.61-.17Z"/><path d="M489.3,782.76a3.06,3.06,0,0,1-1.44-1.48,1.75,1.75,0,0,1,.29-1.66,6.17,6.17,0,0,1,2-1.69,10.47,10.47,0,0,1,2.91-1.16,8,8,0,0,1,2.83-.14,6.49,6.49,0,0,1,2.52.85A3.17,3.17,0,0,1,499.9,779a1.72,1.72,0,0,1-.27,1.64,5.84,5.84,0,0,1-2,1.68,10.54,10.54,0,0,1-2.93,1.18,8.39,8.39,0,0,1-2.85.16A6.71,6.71,0,0,1,489.3,782.76Zm1.55-.89a3.16,3.16,0,0,0,2,.29,7.57,7.57,0,0,0,2.76-1,4,4,0,0,0,1.79-1.58c.19-.47,0-.86-.5-1.17a3.23,3.23,0,0,0-2-.3,7.63,7.63,0,0,0-2.73,1,4.17,4.17,0,0,0-1.82,1.6A.89.89,0,0,0,490.85,781.87Z"/><path d="M507.23,782.75l-8.83,5.1-1.94-1.13,6.54-3.78-.08-.05a2.53,2.53,0,0,1-.65,0,5.24,5.24,0,0,1-.88-.23,4.67,4.67,0,0,1-1-.46l1.48-.85a3.63,3.63,0,0,0,1,.38,4.4,4.4,0,0,0,1,.15,4.19,4.19,0,0,0,.89,0,2,2,0,0,0,.61-.17Z"/><polygon class="cls-25" points="479.76 742.49 416.14 705.76 447.95 687.39 511.57 724.12 479.76 742.49"/><path class="cls-25" d="M430.14,702.09l11.45-6.62c3,1.76,8.36,1.54,11.87-.49l45,26c-3.51,2-3.89,5.1-.85,6.86l-11.45,6.61c-3-1.76-8.36-1.54-11.87.49l-45-26C432.8,706.91,433.18,703.84,430.14,702.09Z"/><ellipse class="cls-25" cx="447.95" cy="691.8" rx="2.7" ry="1.56"/><ellipse class="cls-25" cx="503.93" cy="724.12" rx="2.7" ry="1.56"/><ellipse class="cls-25" cx="423.77" cy="705.76" rx="2.7" ry="1.56"/><ellipse class="cls-25" cx="479.76" cy="738.08" rx="2.7" ry="1.56"/><ellipse class="cls-25" cx="445.4" cy="704.29" rx="4.5" ry="2.6"/><ellipse class="cls-25" cx="482.3" cy="725.59" rx="4.5" ry="2.6"/><ellipse class="cls-25" cx="463.86" cy="714.94" rx="8.66" ry="16.2" transform="translate(-336.78 1006.98) rotate(-77.06)"/><path class="cls-23" d="M460.41,714.65c-1,.6-1,1.6.08,2.23a4.23,4.23,0,0,0,3.84.06c1-.6.71-1.34-.08-2.23s-1.12-1.63-.08-2.22a4.23,4.23,0,0,1,3.84,0c1.08.64,1.11,1.63.07,2.23"/><line class="cls-23" x1="469.05" y1="711.94" x2="467.99" y2="712.55"/><line class="cls-23" x1="460.49" y1="716.88" x2="459.43" y2="717.49"/><path class="cls-14" d="M528,753.9s5.48-13.69-21.54-21.66"/><polygon class="cls-24" points="395.63 551.37 379.43 560.45 471.39 615.2 487.6 606.12 395.63 551.37"/><polygon class="cls-24" points="358.08 572.42 436.21 618.94 452.42 609.85 374.28 563.33 358.08 572.42"/><polygon class="cls-24" points="322.3 592.75 429.17 656.38 437.69 651.61 330.82 587.98 322.3 592.75"/><polygon class="cls-24" points="310.95 599.11 417.82 662.74 426.33 657.97 319.46 594.34 310.95 599.11"/><polygon class="cls-24" points="299.6 605.48 406.47 669.1 414.98 664.33 308.11 600.7 299.6 605.48"/><polygon class="cls-24" points="288.24 611.84 395.11 675.47 403.63 670.69 296.76 607.07 288.24 611.84"/><polygon class="cls-24" points="276.89 618.2 383.76 681.83 392.27 677.06 285.4 613.43 276.89 618.2"/><polygon class="cls-24" points="265.53 624.56 372.4 688.19 380.92 683.42 274.05 619.79 265.53 624.56"/><polygon class="cls-24" points="254.18 630.93 293 654.04 301.52 649.27 262.7 626.15 254.18 630.93"/><polygon class="cls-24" points="333.65 586.39 440.53 650.01 449.04 645.24 342.17 581.62 333.65 586.39"/></g></svg>